<?xml version="1.0" encoding="UTF-8" standalone="no"?>
<!-- Generator: Adobe Illustrator 16.0.0, SVG Export Plug-In . SVG Version: 6.00 Build 0)  -->

<svg
   xmlns:dc="http://purl.org/dc/elements/1.1/"
   xmlns:cc="http://creativecommons.org/ns#"
   xmlns:rdf="http://www.w3.org/1999/02/22-rdf-syntax-ns#"
   xmlns:svg="http://www.w3.org/2000/svg"
   xmlns="http://www.w3.org/2000/svg"
   xmlns:sodipodi="http://sodipodi.sourceforge.net/DTD/sodipodi-0.dtd"
   xmlns:inkscape="http://www.inkscape.org/namespaces/inkscape"
   version="1.1"
   id="Layer_1"
   x="0px"
   y="0px"
   width="561"
   height="36"
   viewBox="68.133 0 561 36"
   enable-background="new 68.133 0 205.167 37.473"
   xml:space="preserve"
   inkscape:version="0.91 r13725"
   sodipodi:docname="logo-text-white.svg"><metadata
     id="metadata27"><rdf:RDF><cc:Work
         rdf:about=""><dc:format>image/svg+xml</dc:format><dc:type
           rdf:resource="http://purl.org/dc/dcmitype/StillImage" /><dc:title /></cc:Work></rdf:RDF></metadata><defs
     id="defs25" /><sodipodi:namedview
     pagecolor="#ffffff"
     bordercolor="#666666"
     borderopacity="1"
     objecttolerance="10"
     gridtolerance="10"
     guidetolerance="10"
     inkscape:pageopacity="0"
     inkscape:pageshadow="2"
     inkscape:window-width="1440"
     inkscape:window-height="769"
     id="namedview23"
     showgrid="false"
     inkscape:zoom="1.9642534"
     inkscape:cx="343.37087"
     inkscape:cy="18.7365"
     inkscape:window-x="0"
     inkscape:window-y="46"
     inkscape:window-maximized="0"
     inkscape:current-layer="g9" /><g
     id="Layer_4"
     display="none"
     style="display:none"
     transform="translate(0,-1.4729706)"><path
       display="inline"
       d="m 170.148,17.94 c -3.716,-0.685 -5.986,-1.312 -7.348,-2.673 -1.36,-1.36 -1.988,-3.63 -2.673,-7.348 -0.058,-0.307 -0.321,-0.528 -0.636,-0.528 -0.312,0 -0.58,0.225 -0.635,0.528 -0.685,3.718 -1.312,5.986 -2.673,7.348 -1.361,1.36 -3.633,1.988 -7.348,2.673 -0.306,0.059 -0.528,0.322 -0.528,0.637 0,0.312 0.224,0.579 0.528,0.635 3.715,0.685 5.986,1.313 7.348,2.673 1.359,1.36 1.988,3.632 2.673,7.348 0.055,0.307 0.321,0.528 0.635,0.528 0.312,0 0.578,-0.224 0.636,-0.528 0.685,-3.716 1.312,-5.985 2.673,-7.348 1.36,-1.357 3.632,-1.988 7.348,-2.673 0.307,-0.056 0.528,-0.321 0.528,-0.635 0,-0.314 -0.221,-0.579 -0.528,-0.637 z"
       id="path4"
       inkscape:connector-curvature="0"
       style="display:inline;fill:#ffffff" /></g><g
     id="Layer_2"
     display="none"
     style="display:none"
     transform="translate(0,-1.4729706)"><path
       display="inline"
       stroke-miterlimit="10"
       d="m -13.007,-45.615 c 6.705,-9.825 10.625,-21.703 10.625,-34.496 0,-33.843 -27.435,-61.275 -61.277,-61.275 -33.842,0 -61.276,27.435 -61.276,61.275 0,33.843 27.435,61.276 61.276,61.276 14.613,0 28.031,-5.115 38.562,-13.652"
       id="path7"
       inkscape:connector-curvature="0"
       style="display:inline;fill:none;stroke:#000000;stroke-width:8;stroke-linecap:round;stroke-miterlimit:10" /></g><g
     id="g9"
     transform="translate(0,-1.4729706)"><text
       xml:space="preserve"
       style="font-style:normal;font-weight:normal;font-size:40px;line-height:125%;font-family:sans-serif;letter-spacing:0px;word-spacing:0px;fill:#000000;fill-opacity:1;stroke:none;stroke-width:1px;stroke-linecap:butt;stroke-linejoin:miter;stroke-opacity:1"
       x="48.787239"
       y="34.927502"
       id="text3363"
       sodipodi:linespacing="125%"><tspan
         sodipodi:role="line"
         x="48.787239"
         y="34.927502"
         id="tspan3367"
         dx="0.0099999998 0 0 0 0 0 0 0 0 0 -0.0099999998"
         style="font-style:normal;font-variant:normal;font-weight:bold;font-stretch:normal;font-size:42.5px;font-family:sans-serif;-inkscape-font-specification:'sans-serif Bold';letter-spacing:2px;word-spacing:0px;fill:#ffffff"> EXPERIENCE MACHINE</tspan></text>
<text
       xml:space="preserve"
       style="font-style:normal;font-weight:normal;font-size:40px;line-height:125%;font-family:sans-serif;letter-spacing:0px;word-spacing:0px;fill:#000000;fill-opacity:1;stroke:none;stroke-width:1px;stroke-linecap:butt;stroke-linejoin:miter;stroke-opacity:1"
       x="115.98833"
       y="15.072603"
       id="text3710"
       sodipodi:linespacing="125%"><tspan
         sodipodi:role="line"
         id="tspan3712"
         x="115.98833"
         y="15.072603" /></text>
<text
       sodipodi:linespacing="125%"
       id="text3714"
       y="31.36381"
       x="401.59302"
       style="font-style:normal;font-weight:normal;font-size:40px;line-height:125%;font-family:sans-serif;letter-spacing:0px;word-spacing:0px;fill:#000000;fill-opacity:1;stroke:none;stroke-width:1px;stroke-linecap:butt;stroke-linejoin:miter;stroke-opacity:1"
       xml:space="preserve"><tspan
         style="font-style:normal;font-variant:normal;font-weight:bold;font-stretch:normal;font-size:42.5px;font-family:sans-serif;-inkscape-font-specification:'sans-serif Bold';letter-spacing:2px;word-spacing:0px"
         id="tspan3716"
         y="31.36381"
         x="401.59302"
         sodipodi:role="line" /></text>
</g></svg>